<svg width="40" height="40" viewBox="0 0 40 40" fill="none" xmlns="http://www.w3.org/2000/svg">
<path d="M24.6333 33.3333H16.3C13.3 33.3333 7.63329 31.8167 7.63329 26.0667C7.63329 20.3167 13.3 18.8 16.3 18.8H23.6999C23.9499 18.8 29.8666 18.7167 29.8666 14.0333C29.8666 9.35 23.9499 9.26666 23.6999 9.26666H15.3666C15.0351 9.26666 14.7172 9.13497 14.4827 8.90055C14.2483 8.66613 14.1166 8.34818 14.1166 8.01666C14.1166 7.68514 14.2483 7.3672 14.4827 7.13278C14.7172 6.89836 15.0351 6.76666 15.3666 6.76666H23.6999C26.6999 6.76666 32.3666 8.28333 32.3666 14.0333C32.3666 19.7833 26.6999 21.3 23.6999 21.3H16.3C16.05 21.3 10.1333 21.3833 10.1333 26.0667C10.1333 30.75 16.05 30.8333 16.3 30.8333H24.6333C24.9648 30.8333 25.2827 30.965 25.5172 31.1994C25.7516 31.4339 25.8833 31.7518 25.8833 32.0833C25.8833 32.4149 25.7516 32.7328 25.5172 32.9672C25.2827 33.2016 24.9648 33.3333 24.6333 33.3333Z" fill="#fff"/>
<path d="M10.7333 13.85C9.57185 13.8401 8.43932 13.4867 7.47841 12.8343C6.5175 12.1818 5.77121 11.2596 5.33357 10.1837C4.89593 9.10782 4.78653 7.92648 5.01916 6.78854C5.25178 5.6506 5.81602 4.60697 6.64078 3.78917C7.46553 2.97136 8.5139 2.41597 9.65377 2.19299C10.7936 1.97 11.974 2.08939 13.0461 2.53612C14.1183 2.98285 15.0342 3.73692 15.6785 4.70332C16.3227 5.66971 16.6666 6.80519 16.6666 7.96667C16.6666 8.7435 16.5128 9.51265 16.214 10.2297C15.9152 10.9468 15.4774 11.5976 14.9258 12.1446C14.3742 12.6916 13.7197 13.1239 13.0001 13.4166C12.2805 13.7093 11.5101 13.8566 10.7333 13.85ZM10.7333 4.58333C10.074 4.58333 9.42955 4.77883 8.88138 5.1451C8.33322 5.51137 7.90598 6.03197 7.65368 6.64105C7.40139 7.25014 7.33538 7.92036 7.464 8.56697C7.59262 9.21357 7.91009 9.80751 8.37626 10.2737C8.84244 10.7399 9.43638 11.0573 10.083 11.1859C10.7296 11.3146 11.3998 11.2486 12.0089 10.9963C12.618 10.744 13.1386 10.3167 13.5048 9.76857C13.8711 9.2204 14.0666 8.57594 14.0666 7.91667C14.0666 7.47893 13.9804 7.04547 13.8129 6.64105C13.6454 6.23664 13.3998 5.86917 13.0903 5.55964C12.7808 5.25011 12.4133 5.00458 12.0089 4.83707C11.6045 4.66955 11.171 4.58333 10.7333 4.58333Z" fill="#fff"/>
<path d="M29.2666 37.9167C28.1023 37.92 26.9631 37.5777 25.9934 36.9333C25.0237 36.2888 24.2671 35.3711 23.8192 34.2964C23.3714 33.2216 23.2525 32.0382 23.4776 30.8958C23.7027 29.7535 24.2617 28.7036 25.0839 27.8791C25.906 27.0547 26.9543 26.4927 28.096 26.2643C29.2377 26.0359 30.4215 26.1515 31.4975 26.5963C32.5735 27.0411 33.4934 27.7951 34.1406 28.763C34.7878 29.7309 35.1332 30.869 35.1333 32.0333C35.1333 33.5908 34.5157 35.0847 33.416 36.1876C32.3162 37.2905 30.824 37.9123 29.2666 37.9167ZM29.2666 28.65C28.6073 28.65 27.9628 28.8455 27.4147 29.2118C26.8665 29.578 26.4393 30.0986 26.187 30.7077C25.9347 31.3168 25.8687 31.987 25.9973 32.6336C26.1259 33.2802 26.4434 33.8742 26.9096 34.3404C27.3757 34.8065 27.9697 35.124 28.6163 35.2526C29.2629 35.3812 29.9331 35.3152 30.5422 35.0629C31.1513 34.8106 31.6719 34.3834 32.0381 33.8352C32.4044 33.2871 32.5999 32.6426 32.5999 31.9833C32.5999 31.0993 32.2487 30.2514 31.6236 29.6263C30.9985 29.0012 30.1506 28.65 29.2666 28.65Z" fill="#fff"/>
</svg>
